<?xml version="1.0" encoding="utf-8"?>
<!-- Generator: Adobe Illustrator 26.0.2, SVG Export Plug-In . SVG Version: 6.00 Build 0)  -->
<svg version="1.1" id="Layer_1" xmlns="http://www.w3.org/2000/svg" xmlns:xlink="http://www.w3.org/1999/xlink" x="0px" y="0px"
	 viewBox="0 0 612 792" style="enable-background:new 0 0 612 792;" xml:space="preserve">
<style type="text/css">
	.st0{fill:#FEFDED;}
	.st1{fill:#EAEED3;}
</style>
<g>
	<path class="st0" d="M183.8,506.4c0,0-30.7-13.4-24-52.9s49-34.6,49-34.6s45.3,4.2,46.8,46.2c1.5,42-47.2,41.3-47.2,41.3
		s15.9,2.2,20.1,21.4l-13.4,8.2c0,0-4.2-13.4-14.5-12.3c-10.2,1.1-10.2,12.7-8.1,22.9l-3.2,2.8c0,0,1.8-17.6-6.4-23.3
		s-13.4-2.3-17.3,1.7C165.8,527.8,165.8,510.7,183.8,506.4z M187.6,550.5c0,0,4.1-19.7-8.6-25.5c-2.9-2.1-11.2,0.1-12.5,4.3
		c-1.4,4.5,0.8,11.2,2,15.8c2.4,8.8,1.9,9.6,1.9,9.6L187.6,550.5z M194.5,545.5l19.6-9.7c-0.5-1.8-7.7-13.8-16.1-10
		c-8.4,3.8-4.1,19.7-4.1,19.7H194.5L194.5,545.5z M179.4,490.4c-1.2,0-2.2,1-2.2,2.2c0,1.2,1,2.2,2.2,2.2s2.2-1,2.2-2.2
		C181.6,491.4,180.6,490.4,179.4,490.4z M174.7,445.3c-4.8-0.8-9.6,3.5-10.7,9.7c-1.1,6.2,2,11.9,6.8,12.7c4.8,0.8,9.6-3.5,10.7-9.7
		C182.5,451.8,179.5,446.1,174.7,445.3z M228,467.9c-5.4,0-9.8,4.4-9.8,9.8c0,5.4,4.4,9.8,9.8,9.8c5.4,0,9.8-4.4,9.8-9.8
		C237.7,472.2,233.4,467.9,228,467.9z"/>
	<path class="st0" d="M327.4,252.3c-22-15.1-45.9-6.2-59,0.5s-38.4,23.6-31.1,54.8c7.3,31.2,26.4,40.2,26.4,40.2s4.5,1.6,9,1.6
		c0,0-20.4,11.6-20.1,43.2c0.3,31.6,3.8,35.5,6.9,36c3.1,0.4,2.8-3.8,2.8-3.8s-0.1-13.9,1.2-22.1s4.1-16.5,5-19.6
		c0.9-3.1,0.6-13.4,1.8-13.4c1.2,0,0.8,11.3,0.1,13.9c-0.7,2.6-3.9,9.9-4.8,14.9c-0.9,4.9-1.7,26.8-1.7,26.8s-1,24.5,2.5,44.2
		c3.5,19.7,10.4,30.7,16.2,30.7s4.6-6.9,4.6-6.9s-2.5-41.9,1.1-43.3c4.2-1.7,4.8,40,4.8,46.5c0.1,6.6,17.9-3.7,19.7-11.9
		c1.8-8.2,6.3-34.6,4.7-55.1c-1.6-20.5-4-28.9-4.7-32.8c-0.7-3.9-7-20.8-7-26.2l7.5,23c0,0,3.7,16.9,4.4,20.7
		c0.7,3.8-0.6,17.4,2.9,17.4s8.2-5.9,8.7-33c0.5-27.1-12.3-41.5-12.3-41.5s-6.2-9.1-15.6-11.9c0,0,37.4-5.5,44.5-23.2
		C353,304.4,349.4,267.5,327.4,252.3z M253.1,285.3c0,0-3.5-8.1,8.4-10.8c5.4-1.2,5.4,7.6,0.1,11.9
		C256.4,290.7,253.1,285.3,253.1,285.3z M277.3,317.6c-0.5,5.1-4.4,9.3-7.9,9.6c-3.5,0.3-9.7-1.3-9.9-10s8.1-10.2,8.1-10.2
		C275,307.6,277.8,312.5,277.3,317.6z M324.3,313.3c-4.4,11.2-15,11.4-18.8,8c-2.5-2.3-5-9.3-4.3-12.8c0.7-3.5,1.6-9.1,12.7-9.4
		C314,299.1,329.6,299.7,324.3,313.3z"/>
	<path class="st0" d="M309.7,408.4"/>
	<path class="st0" d="M470.1,335.9c0.6-16.9,2.7-25-1.4-34.4c-4.2-9.4-28.7-32.7-52.4-33.5c-23.6-0.7-32,11-40.4,19
		c-8.4,8.1-12.8,25-9.4,48s43.7,46.9,43.7,46.9s-5.6,2-13.9,10.3c-8.3,8.3-13.3,24-14.7,40.9c-1.4,16.9,0.2,30.2,6.9,31.9
		c6.7,1.7,5.4-22.9,6-26.8c1.9-13.2,11.8-29.9,10.5-22.5c-1.3,7.4-10.7,36.8-10.9,46.5s-3.2,62.9,11.2,63.8
		c14.5,0.9,10.5-50.8,16-44.8c5.5,6-3.4,46.4,9.1,44c12.5-2.4,17.7-34.8,17.3-55.9c-0.2-11.6-2.3-26.1-4.1-36.9
		c0.2,1,0.5,2.1,0.7,3.3c3.7,16,3.7,29.1,3.7,29.1s-0.1,5.9,4.5,5.2s11-12.1,6.6-38.7c-4.4-26.6-18.6-42.7-18.6-42.7s11-2.4,22.1-12
		C473.8,367,469.7,347,470.1,335.9z M387.3,337.6c-6-0.1-10.9-3.9-10.7-9.5c0.1-5.7,4.3-9.4,10.4-9.3c6,0.1,11.6,4.1,11.5,9.8
		C398.3,334.2,393.3,337.7,387.3,337.6z M433.3,376.2c-3.3-1.5-1.5-6.7-1.5-6.7c2.9-3.4,11.1-2.2,11,2.1
		C442.8,376,436.6,377.7,433.3,376.2z M442.7,312.3c-5.5-0.1-8.7-3.3-8.6-8.3s3.4-8,9-7.9c5.5,0.1,8.6,4.3,8.5,9.4
		S448.2,312.4,442.7,312.3z"/>
	<path class="st1" d="M312.9,489.3c0,0-8.3,0.7-27.8,7.5c-19.5,6.8-25.2,11.4-25.2,11.4s-9.3,0-19.2,6.2
		c-10,6.2-23.2,20.8-32.4,23.5c-9.1,2.7-41.5,18.8-41.5,18.8l-21.6,1.7c0,0-6.6,7.9-22.8,9.5s-23.7,11.6-23.7,11.6
		s24.5-4.1,32.8-4.6s0,4.6,0,4.6l-2.9,3.3c0,0,50.2-14.5,77.2-10l10.2,11.6l39.2-3.3l18.3-15.8l17-3.3c0,0,5.8,5.4,7.1,5.4
		c1.2,0,13.7-7.9,13.7-7.9l8.7-12.2h11.6H349l13.7-9.5c0,0,8.7-1,10,0c1.2,1,19.5,9.5,19.5,9.5h26.1l18.7-5.9h8.7l27-4.6h27.8
		l12.9-3.9c0,0-10.5-8.5-11.5-6.8c-1,1.8-32.1,2.8-34.2,2.1s-29.9-5.1-31.1-3.9c-1.2,1.1-24.5-1.8-24.5-1.8l-21.2-6.6l-23.2-11.6
		l-11.6-7.6l-25.3,1.8L312.9,489.3z"/>
</g>
</svg>
