<?xml version="1.0" encoding="utf-8"?>
<!-- Generator: Adobe Illustrator 25.0.1, SVG Export Plug-In . SVG Version: 6.00 Build 0)  -->
<svg version="1.1" id="Capa_1" xmlns="http://www.w3.org/2000/svg" xmlns:xlink="http://www.w3.org/1999/xlink" x="0px" y="0px"
	 viewBox="0 0 337.01 355.49" style="enable-background:new 0 0 337.01 355.49;" xml:space="preserve">
<style type="text/css">
	.st0{fill:#FFFFFF;}
</style>
<g>
	<g>
		<path d="M167.79,116.75c11.18,20.28,9.02,36.1-7.65,56.95c16.29,7.21,22.78,22.03,29.13,37.08c1.59,3.76,4.15,7.24,6.79,10.41
			c10.91,13.09,15.03,28.51,15.29,45.06c0.06,4.03-1.27,8.12-3.7,12.15c-3.75-1.77-7.5-3.54-11.24-5.33
			c-0.61-0.29-1.16-0.69-2.07-1.23c-0.83,6.31-1.25,12.36-2.46,18.25c-5.26,25.5-21.55,39.91-49.53,44.23
			c-21.51,3.32-42.6,1.17-63.35-4.99c-21.96-6.52-32.85-22.42-35.58-44.1c-1.27-10.12,0.23-20.55-0.45-30.79
			c-0.24-3.59-2.34-8.93-5.09-10.17c-14.2-6.42-13.57-27.79-5.74-36.5c2.97-3.3,3.21-6.15,2.78-10.45
			c-1.59-15.85-1.82-30.09-1.77-45.99c1.56-21.11,11.46-37.63,25.47-51.57c2.13-2.12,4.66-4.93,4.95-7.64
			c3.72-34.49,24.76-54.31,55.39-66.07c25.87-9.94,51.99-7.4,77.25,1.23c18.22,6.23,35.99,14.4,52.92,23.63
			c18.5,10.08,37.28,23.54,55.05,34.94c6.92,5,6.25,6,6.03,6.81c-0.56,1.21-6.92,0.95-10.34,0.79
			c-53.25-2.53-100.73,5.45-158.12,12.57c-20.72,1.54-35,4.69-52.6,5.36c-7.55,0.29-14.21-3.17-22.12-8.49
			c-9.36,7.67-24.8,28.08-26.09,43.02c-3.14,15.52,1.86,51.7,3.52,50.68c0.06,1.73,3.47,4.31,5.65,4.7c1.72,0.31,4.99-1.7,5.75-3.46
			c4.44-10.37,10.31-19.48,20.76-25.92c-7.93-11.33-10.48-23.71-7.84-36.63c1.38-6.73,4.75-13.06,7.61-20.57
			c18.55,12.16,21.89,28.66,20.15,46.65h46.35C143.05,143.39,151.51,128.23,167.79,116.75z M165.62,197.21
			c0.2-7.28-5.76-13.59-13.16-13.95c-7.43-0.36-14.31,6.22-14.27,13.67c0.04,7.32,6.21,13.42,13.64,13.48
			C159.32,210.47,165.42,204.63,165.62,197.21z M99.17,194.54c-0.03-7.22-6.36-13.5-13.65-13.54c-7.7-0.04-14.15,6.45-13.92,14
			c0.23,7.47,6.3,13.12,13.99,13C93.24,207.9,99.2,201.99,99.17,194.54z M49.72,214.42c-2.86-3.26-5.08-5.79-7.3-8.32
			c-1.53,1.46-4.63,3.58-4.33,4.27c1.6,3.78,4.02,7.21,6.16,10.76C45.75,219.29,47.25,217.45,49.72,214.42z"/>
		<path class="st0" d="M69.53,84.36c3.01-8.19,4.14-11.67,7.89-17.65c17.13-24.07,42.11-38.72,70.81-40.27
			c32.79-1.77,62.06,13.55,90.6,28.01c14.88,7.54,29.29,16,43.84,24.17c3.5,1.96,6.69,4.45,10.03,6.7c3.1,2.29,4.61,3.32-0.84,2.79
			c-13.21-1.67-26.65-2.28-39.57-5.2c-32.94-7.44-66.12-12.86-99.88-12.98c-27.43-0.1-54.41,3.49-79.15,16.82
			c-0.82,0.44-1.89,1.12-2.82,1.37C68.66,88.71,68.26,87.92,69.53,84.36z"/>
		<path class="st0" d="M244.81,87.83c-36.47,4.47-84.84,8.39-121.35,12.53c-11.65,1.32-21.41,3.02-33.15,3.5
			c-1.47-0.06-5.57,0-11.58-1.57c-6.04-1.75-10.19-5.5-5.66-9.08c2.68-2.14,5.34-3.68,8.72-5.06
			C114.47,74.82,148.44,72.98,183,77.48c15.79,2.06,31.51,4.63,47.26,7c0.89,0.13,1.74,0.46,3.68,0.59
			C240.22,86.4,251.01,87,244.81,87.83z"/>
		<ellipse cx="157.7" cy="192.97" rx="7.7" ry="6.71"/>
		<ellipse cx="89.44" cy="191.39" rx="7.82" ry="6.22"/>
	</g>
	<path class="st0" d="M119.32,225.19c7.01,0.57,14.1,0.83,21.02,1.77c12.83,1.74,22.58,7.14,28.19,15.82
		c9.94,15.39,14.36,31.64,6.08,48.08c-9.03,17.94-26.71,29.22-52.58,32.39c-9.7,1.19-18.61-1.55-26.82-5.04
		c-21.7-9.23-34.88-22.84-35.81-41.8c-0.56-11.38,2.22-22.52,9.2-32.83c7.74-11.42,20.84-16.77,37.54-17.68
		c4.35-0.24,8.74-0.04,13.12-0.04C119.28,225.64,119.3,225.42,119.32,225.19z M112.2,251.69c5.07-2.81,9.77-2.29,14.54-0.35
		c-0.38-3.45-4.1-7.09-6.95-7.22C116.82,243.99,112.98,247.46,112.2,251.69z M99.26,236.37c4.37-2,8.65-2.02,13.1-0.05
		c-0.88-3.71-4.05-6.61-6.66-6.54C103.13,229.86,99.99,232.87,99.26,236.37z M138.22,236.52c-1.06-3.64-4.26-6.63-6.67-6.62
		c-2.41,0-5.66,3.07-6.56,6.63C129.44,234.5,133.75,234.6,138.22,236.52z M101.03,251.12c-1.28-2.67-2.33-5.74-6.36-5.6
		c-3.79,0.13-5.02,2.97-6.06,5.87C92.76,249.43,96.82,249.92,101.03,251.12z M151.03,251.1c-1.14-2.13-2.48-5.01-6.29-4.98
		c-3.75,0.03-5.15,2.87-6.27,4.98C142.6,251.1,146.56,251.1,151.03,251.1z M168.46,254.46c-0.79-1.9-1.94-4.11-5.56-4.52
		c-2.31-0.26-4.94,2.64-4.97,4.52C161.4,254.46,164.86,254.46,168.46,254.46z M81.9,253.89c-1-2.82-3.41-4.81-5.75-4.54
		c-2.29,0.26-4.65,2.94-4.54,4.54C75.02,253.89,78.38,253.89,81.9,253.89z M91.6,237.32c-0.74-1.93-2.07-4.39-5.41-4.3
		c-3,0.08-4.41,2.4-4.93,4.3C84.79,237.32,88.14,237.32,91.6,237.32z M155.99,237.44c0.32-0.15,0.64-0.29,0.95-0.44
		c-1.99-1.28-3.85-3.47-5.98-3.62c-3.17-0.23-4.34,2.29-5.17,4.06C149.28,237.44,152.63,237.44,155.99,237.44z"/>
	<path class="st0" d="M126.74,198.99c-9.49,6.34-10.57,6.35-18.97,0.4C110.49,197.26,121.74,196.93,126.74,198.99z"/>
</g>
</svg>
