<?xml version="1.0" encoding="utf-8"?>
<!-- Generator: Adobe Illustrator 25.0.1, SVG Export Plug-In . SVG Version: 6.00 Build 0)  -->
<svg version="1.1" id="Capa_1" xmlns="http://www.w3.org/2000/svg" xmlns:xlink="http://www.w3.org/1999/xlink" x="0px" y="0px"
	 viewBox="0 0 337.01 355.49" style="enable-background:new 0 0 337.01 355.49;" xml:space="preserve">
<style type="text/css">
	.st0{fill:#FFFFFF;}
</style>
<g>
	<g>
		<g>
			<path d="M79.2,158.09c-0.49-1.58-0.98-2.87-1.28-4.21c-0.71-3.13,0.53-4.63,3.7-4.2c5.63,0.77,10.84,2.79,15.55,6.01
				c6.33,4.33,11.73,9.65,16.41,15.7c0.88,1.13,1.75,1.73,3.29,1.67c2.13-0.08,4.27,0.19,6.4,0.38c5.76,0.5,10.34,3.07,13.92,7.64
				c1.81,2.32,3.89,4.43,5.95,6.54c1.26,1.29,2.49,2.53,4.65,2.55c0.89,0.01,1.96,1.35,2.59,2.31c0.86,1.31,1.25,2.91,2.05,4.26
				c1.98,3.34,2.83,6.79,1.22,10.82c2.76,0.35,5.32,0.67,8.08,1.02c3.25-23.99,2.27-46.73-14.66-66.16
				c-4.33,3.01-8.58,5.08-13.48,5.62c-2.67,0.3-5.35,0.74-7.95,1.4c-6.4,1.62-12.45,0.4-18.36-2.04c-1.83-0.75-3.65-1.64-5.31-2.72
				c-3.69-2.4-7.4-4.69-11.39-6.64c-7.49-3.65-12.05-14.93-9.92-23.02c0.74-2.8,2.3-4.98,4.82-6.32c1.87-1,3.92-1.68,5.89-2.5
				c2.78-1.15,5.63-2.16,8.32-3.49c4.31-2.12,8.78-2.32,13.39-1.64c0.65,0.1,1.29,0.21,2.06,0.34c0.15-0.47,0.31-0.87,0.39-1.28
				c1.06-5.44,4.06-9.48,8.6-12.63c3.25-2.26,6.34-4.79,9.27-7.46c5.08-4.63,10.6-4.91,15.93-0.59c0.59,0.47,1.39,0.85,2.13,0.94
				c2.56,0.31,4.23,1.76,4.53,4.16c0.64,5.09,3.19,9.22,5.73,13.5c3.57,6.02,4.4,12.75,3.95,19.66c-0.02,0.37-0.09,0.74-0.21,1.09
				c-2.05,6.32-5.88,11.72-9.09,17.43c-0.68,1.21-2.42,1.82-3.91,2.89c0.24,0.43,0.58,1.04,0.93,1.64c2.7,4.66,5.36,9.35,8.1,13.98
				c5.21,8.77,6.83,18.45,7.32,28.43c0.38,7.67,0.62,15.34-0.74,22.96c-0.09,0.5-0.2,1.07-0.05,1.53c0.79,2.53,0.82,2.52-0.25,4.31
				c-0.19,0.98-0.35,1.96-0.57,2.93c-0.15,0.64-0.41,1.24-0.58,1.88c-0.8,3.07-1.23,6.29-2.47,9.17c-2.28,5.32-1.92,10.93-2.6,16.4
				c2.51,0.93,4.7,1.33,6.45-1.3c0.56-0.84,1.79-1.23,2.73-1.82c1.8-1.12,2.8,0.38,3.61,1.42c0.32,0.41-0.31,1.82-0.83,2.56
				c-0.52,0.76-1.56,1.15-2.14,1.89c-0.84,1.06-1.96,2.22-2.12,3.45c-1.64,12.8-9.75,19.29-21.38,22.83
				c-18.35,5.58-37.04,4.49-55.73,3.21c-7.31-0.5-14.09-3.08-20.16-7.33c-0.29-0.2-0.62-0.35-1.61-0.9
				c0.38,1.95,0.74,3.37,0.89,4.81c0.09,0.8,0.13,2.02-0.33,2.37c-0.51,0.39-1.8,0.31-2.42-0.08c-1.6-1.01-3.27-2.09-4.47-3.52
				c-2.43-2.87-2.08-5.31,0.95-8.73c-1.27-1.27-2.64-2.48-3.84-3.84c-3.54-4.03-7.29-7.93-10.42-12.26
				c-1.71-2.37-2.65-5.44-3.38-8.33c-1.17-4.7,0.53-8.18,4.71-10.66c3.24-1.92,6.79-2.82,10.54-2.96c0.95-0.04,1.9-0.01,2.39-0.01
				c1.43-6.35,2.52-12.57,4.28-18.59c1.81-6.18,5.6-11.31,9.99-15.38c-4.3-4.14-8.68-7.96-12.58-12.22
				c-5.06-5.53-8.03-12.15-8.65-19.71c-0.08-1.02-0.03-2.07,0.13-3.08c0.3-1.87,1.48-2.98,3.38-2.75c1.73,0.21,3.49,0.62,5.11,1.27
				c3.62,1.47,7.15,3.15,10.73,4.74C77.92,157.66,78.46,157.82,79.2,158.09z M131.18,124.28c0.44,0.47,0.88,0.94,1.33,1.41
				c-0.1,0.16-0.2,0.33-0.3,0.49c-0.72-0.06-1.44-0.12-2.03-0.17c1.49,1.75,3.01,3.54,4.55,5.33c1.01,1.17,1.97,2.4,3.07,3.48
				c4.12,4.04,9.1,3.75,14.09,2.42c4.36-1.16,5.86-4.89,6.79-8.8c1.26-5.27,0.33-10.24-2.48-14.88c-0.37-0.61-0.53-1.34-0.78-2.02
				c0.28-0.1,0.55-0.19,0.83-0.29c3.36,3.75,4.35,8.43,4.97,13.44c1.19-2.05,2.44-4.08,2.72-6.23c0.94-7.12-0.09-14.05-3.89-20.23
				c-2.5-4.06-4.87-8.05-5.4-12.91c-0.17-1.6-1.04-2.91-2.82-3.3c-1.9-0.42-3.01,0.63-4.09,1.98c-1.15,1.42-2.25,3.03-3.73,4
				c-2.89,1.88-3.69,4.45-3.86,7.69c-0.18,3.43-0.48,6.95-1.42,10.23c-2.23,7.8-1,14.66,4.23,20.91c1.93,2.3,3.43,4.96,5.04,7.51
				c0.33,0.52,0.3,1.28,0.44,1.92c-0.19,0.07-0.39,0.13-0.58,0.2c-0.33-0.35-0.71-0.67-0.98-1.06c-2.21-3.22-4.32-6.5-6.61-9.66
				c-3.93-5.43-4.89-11.34-3.61-17.85c0.92-4.67,1.5-9.42,2.11-14.15c0.28-2.2,0.91-4.09,2.64-5.64c2.5-2.24,4.84-4.65,7.25-7
				c-4.01-3.84-8.74-4.25-12.69-1.1c-2.28,1.82-4.29,3.97-6.43,5.98c3.31,3.69,6.35,7.32,7.62,11.99c-0.2,0.13-0.39,0.26-0.59,0.4
				c-2.68-3.91-5.37-7.81-8.02-11.67c-5.59,3.04-9.85,6.52-11.15,12.39c-1.38,6.24-0.9,12.51,1.06,18.55c1.42,4.35,3.25,5.55,7.91,6
				c-1.6-1.07-2.92-1.86-4.1-2.81c-0.42-0.34-0.74-1.11-0.69-1.64c0.04-0.39,0.74-0.95,1.19-0.98c0.45-0.04,1.25,0.38,1.38,0.76
				c0.92,2.78,3.29,3.74,5.67,4.72C130.27,123.88,130.73,124.08,131.18,124.28z M127.77,243.58c-0.01-0.31-0.02-0.62-0.04-0.93
				c0.75-0.13,1.5-0.31,2.25-0.37c4.18-0.35,8.11-1.5,11.77-3.55c6.66-3.72,12.19-8.8,16.99-14.66c1.41-1.73,2.25-3.94,3.24-5.98
				c0.53-1.09,0.8-2.21-0.78-2.9c-0.37-0.16-0.61-1.12-0.55-1.67c0.19-1.75-1.13-3.69-2.87-3.9c-10.05-1.23-19.89-0.69-29.27,3.58
				c-0.4,0.18-0.8,0.43-1.23,0.48c-0.29,0.04-0.78-0.14-0.87-0.35c-0.1-0.22,0.09-0.72,0.31-0.89c0.39-0.31,0.9-0.49,1.37-0.7
				c6.99-3.17,14.35-4.44,21.98-4.12c1.58,0.07,2.22-0.52,2.62-1.94c0.88-3.13-0.1-5.85-1.82-8.35c-0.49-0.72-1.5-1.27-2.37-1.49
				c-1.83-0.46-3-1.4-3.51-3.25c-0.2-0.73-0.52-1.53-1.02-2.07c-2.79-3.04-5.79-5.89-8.45-9.04c-3.12-3.71-6.96-5.87-11.71-6.43
				c-2.34-0.28-4.72-0.6-7.05-0.46c-2.06,0.12-3.2-0.69-4.37-2.2c-4.72-6.11-10.16-11.49-16.62-15.77
				c-4.25-2.81-8.95-4.49-13.93-5.39c-1.03-0.19-2.33-0.55-2.56,1.17c-0.31,2.38,2.29,6.66,4.39,7.9c6.09,3.59,12.1,7.3,18.11,11.02
				c0.55,0.34,0.87,1.05,1.3,1.59c-0.15,0.16-0.3,0.32-0.45,0.48c-0.49-0.22-1.05-0.36-1.46-0.68
				c-10.3-8.34-22.57-12.99-34.45-18.37c-1.27-0.57-2.63-1-3.98-1.31c-2.19-0.5-3.24,0.19-3.14,2.4c0.11,2.48,0.36,5.04,1.08,7.4
				c3.51,11.51,11.52,19.31,21.48,25.41c1.25,0.77,2.64,1.32,3.89,2.09c0.52,0.32,0.85,0.95,1.26,1.43
				c-0.66-0.04-1.37,0.05-1.97-0.16c-0.9-0.31-1.79-0.74-2.56-1.28c-1.12-0.79-1.89-0.59-2.84,0.35c-3.32,3.32-6.07,7.03-8,11.32
				c-2.98,6.62-4.43,13.58-4.5,20.83c-0.01,1.64-0.46,2.14-2.2,1.96c-4.45-0.46-8.67,0.48-12.52,2.79
				c-3.44,2.07-4.61,4.65-3.93,8.59c1,5.74,4.05,10.43,7.94,14.55c3.69,3.91,7.67,7.56,11.47,11.37c4.6,4.6,10.11,7.57,16.28,9.45
				c7.75,2.36,15.73,2.27,23.69,2.3c1.89,0.01,3.78,0,5.76,0c-1.07-5.89,1.64-9.58,6.24-12.24c2.23-1.29,4.52-2.49,6.75-3.8
				c5.52-3.25,7.77-8.34,8.14-14.65C132.61,243.21,130.17,244.38,127.77,243.58z M120.83,148.86c-11.7-6.25-20.05-13.12-19.71-17.32
				c0.78,0.79,1.42,1.3,1.9,1.93c5.43,7.11,12.43,11.86,21.13,14.03c0.77,0.19,1.61,0.13,2.42,0.19c-2.59-1.96-5.46-3.22-6.86-6.27
				c2.29,1.04,4.19,2.79,6.44,3.67c2.32,0.91,5,1.45,7.47,1.31c2.5-0.15,5.01-1.15,7.37-2.13c2.31-0.96,4.55-2.21,6.47-4.82
				c-6.99,0.72-10.95-3.06-14.39-7.76c-0.22-0.3-0.46-0.58-0.67-0.88c-2.44-3.4-5.75-5.76-9.81-6.25
				c-4.56-0.56-9.23-0.53-13.84-0.37c-2.9,0.11-5.58,0-7.98-1.77c-1.3-0.96-2.48-0.77-3.87,0.02c-1.37,0.78-2.93,1.45-4.47,1.63
				c-1.99,0.23-2.52,1.13-2.26,2.91c0.64,4.47,2.54,8.3,5.87,11.35c5.21,4.78,11.2,8.14,18.13,9.67
				C116.33,148.49,118.6,148.58,120.83,148.86z M160.97,236.32c-0.18,0.04-0.35,0.07-0.53,0.11c-3.27,4.07-6.39,8.28-9.88,12.15
				c-1.15,1.28-3.19,1.89-4.94,2.44c-0.66,0.21-2.07-0.4-2.36-1.01c-0.29-0.61,0.16-1.88,0.7-2.51c1.49-1.73,3.18-3.27,4.8-4.88
				c4.13-4.11,6.74-9.15,8.72-14.66c-0.79,0.38-1.14,1.15-1.71,1.7c-4.64,4.57-9.43,9.05-15.58,11.44c-2.73,1.06-3.75,2.7-4.03,5.28
				c-0.63,5.83-3.87,9.91-8.71,12.88c-1.82,1.12-3.77,2.02-5.59,3.14c-1.44,0.88-2.9,1.8-4.11,2.95c-1.84,1.75-2.74,3.97-2.48,6.59
				c0.14,1.39,0.66,2.13,2.23,2.04c5.37-0.31,10.77-0.31,16.11-0.84c7.25-0.72,13.39-3.84,17.27-10.19
				c2.75-4.5,5.34-9.19,7.25-14.09C159.66,244.91,160.07,240.52,160.97,236.32z M100.25,112.76c0.26-0.14,0.52-0.28,0.78-0.42
				c0.37,0.63,0.68,1.3,1.12,1.88c1.8,2.39,3.59,4.78,5.48,7.1c0.43,0.53,1.22,1.1,1.84,1.1c3.11-0.03,6.21-0.24,9.6-0.4
				c-3.24-4.55-3.55-9.56-3.77-14.59c-0.05-1.03,0.07-2.09-0.13-3.09c-0.12-0.57-0.66-1.39-1.13-1.49
				c-4.79-0.98-9.47-0.96-13.99,1.41c-2.46,1.29-5.12,2.19-7.71,3.24c-1.77,0.71-3.62,1.25-5.34,2.08c-3.01,1.44-4.85,3.9-5.11,7.24
				c-0.56,7.16,1.5,13.41,6.95,18.29c1.04,0.93,2.36,1.54,3.55,2.31c0.09-0.63-0.05-0.88-0.21-1.12c-2.37-3.67-4.06-7.51-3.35-12.05
				c0.08-0.49-0.49-1.11-0.81-1.63c-1.4-2.31-2.86-4.59-4.19-6.95c-0.26-0.46-0.04-1.18-0.04-1.78c0.22-0.04,0.44-0.09,0.66-0.13
				c0.31,0.62,0.58,1.25,0.93,1.85c1.08,1.83,2.16,3.66,3.31,5.45c1.17,1.82,2.82,2.02,4.79,1.31c-4.89-5.96-5.91-8.28-4.33-10.6
				c0.34,0.93,0.64,1.62,0.83,2.34c0.74,2.73,2.14,5.03,4.47,6.65c0.47,0.33,1.48,0.48,1.9,0.2c2-1.31,3.7-0.78,5.54,0.34
				c1.24,0.76,2.71,1.15,4.07,1.71c0.11-0.18,0.21-0.36,0.32-0.54C103.56,119.63,100.84,116.8,100.25,112.76z M163.57,207.7
				c2.34,0.55,2.89-0.56,3.15-2.4c1.62-11.72,1.13-23.41-0.96-34.99c-2.06-11.47-9.07-20.66-14.77-30.44
				c-0.18-0.3-1.33-0.37-1.74-0.11c-0.55,0.35-0.82,1.14-1.07,1.52c2.29,2.98,4.76,5.59,6.54,8.6c7.95,13.49,10.81,28.21,9.98,43.73
				C164.44,198.3,163.95,202.97,163.57,207.7z M167.32,250.07c-4,1.23-4.44-2.49-3.35-5.58c-0.88-0.13-1.73-0.26-2.72-0.41
				c-2.49,9.76-6.81,18.37-14.14,25.6C157.17,268.44,166.1,259.72,167.32,250.07z M164.8,215.92c-5.06,12.1-9.27,24.66-20.36,33.16
				c2.15,0.77,3.71,0.2,4.78-1.21c3.5-4.63,7.28-9.11,10.22-14.08C162.63,228.39,163.99,222.21,164.8,215.92z M66.27,262.58
				c-1.7,1.05-2.7,2.38-2.12,4.29c0.85,2.76,2.94,4.29,5.7,5.53c-0.29-1.75-0.91-3.2-0.65-4.46
				C69.79,265.21,68.3,263.89,66.27,262.58z M160.91,210.17c2.72,2.05,4.7,1.61,6.25-1.14
				C165.07,209.41,163.27,209.74,160.91,210.17z M148.35,194.46c0.22-0.18,0.45-0.36,0.67-0.54c0.07-1.55-0.49-2.51-3.07-2.24
				C146.96,192.86,147.65,193.66,148.35,194.46z M168.96,244.69c-1.28,1.21-2.57,2.42-3.85,3.62c0.17,0.17,0.33,0.35,0.5,0.52
				C167.41,248.16,168.14,246.35,168.96,244.69z"/>
			<path d="M213.65,277.24c-0.3,1.04-0.29,2.57-0.91,2.89c-1.97,1.03-4.37,1.25-5.85,3.21c-0.54-0.44-1.26-0.78-1.59-1.35
				c-1.52-2.63-1.06-5.26,1.16-7.41c0.2-0.2,0.38-0.42,0.8-0.87c-2.49-1.54-4.94-2.9-7.2-4.51c-2.26-1.61-4.58-3.26-6.43-5.29
				c-2.01-2.2-1.68-4.27,0.32-6.52c0.1-0.11,0.19-0.23,0.31-0.32c9.47-7.06,13.31-17.55,17.14-28.07c0.87-2.38,0.85-4.24-0.55-6.54
				c-2.64-4.32-4.88-8.91-7.05-13.5c-0.8-1.69-1.12-3.68-1.27-5.57c-0.27-3.44,1.26-4.55,4.64-3.6c1.05,0.29,2.06,0.7,3.08,1.05
				c0.08-0.19,0.14-0.25,0.14-0.32c0.22-4.85,1.7-5.79,5.98-3.3c6.7,3.89,13.46,7.78,17.34,15.01c0.25,0.47,1.16,0.83,1.77,0.84
				c8.33,0.12,14.78,4.63,17.81,12.47c0.35,0.9,1.11,1.63,1.63,2.47c0.33,0.54,0.95,1.3,0.79,1.7c-1.21,3.01,1.22,5.64,0.48,8.55
				c0.22,0.09,0.45,0.17,0.67,0.26c0.66-1.04,1.67-2,1.92-3.12c3.67-17.08,5.93-34.3,4.96-51.83c-0.48-8.75-2.52-17.06-6.76-24.75
				c-4.07-7.37-10.83-10.83-17.89-9.16c-0.67,0.16-1.59,0.71-1.77,1.28c-2.85,8.81-9.62,12.57-18.11,13.67
				c-3.97,0.51-8.09,0.27-12.11-0.06c-2.05-0.17-4.17-1.02-5.99-2.03c-3.07-1.7-3.41-4.13-1.6-7.1c0.55-0.91,0.68-2.08,1.03-3.12
				c0.28-0.83,0.48-1.72,0.91-2.47c1.73-3,4.02-5.55,7.21-6.97c8.46-3.76,17.02-4.46,25.24,0.49c2.34,1.41,4.49,1.85,7.12,1.88
				c8.42,0.08,14.38,4.67,19.09,11.17c4.78,6.6,6.52,14.27,7.58,22.16c2.28,17.05,0.4,33.85-2.86,50.59
				c-0.48,2.46-0.06,5.15-0.82,7.49c-0.79,2.43-0.63,5.33-3.23,7.18c-0.9,0.64-0.89,2.71-1.09,4.15c-0.21,1.59-0.22,3.21-0.22,4.82
				c0,0.61,0.1,1.41,0.48,1.75c0.29,0.26,1.11-0.07,1.69-0.17c0.21-0.04,0.39-0.26,0.59-0.29c1.11-0.13,2.23-0.23,3.34-0.34
				c0.02,1.17,0.1,2.35,0.01,3.51c-0.03,0.48-0.35,0.98-0.65,1.39c-6.66,9.34-14.7,16.68-26.64,18.32
				c-1.17,0.16-2.35,0.26-3.53,0.27C227.77,277.25,220.77,277.24,213.65,277.24z M248.63,257.86c-0.12-0.28-0.25-0.55-0.37-0.83
				c0.58-0.4,1.21-0.75,1.74-1.2c2.07-1.76,4.27-3.41,6.13-5.37c1.85-1.94,2.64-4.41,2.02-7.16c-0.59-2.57-1.55-3.12-4.11-2.47
				c-3.07,0.77-6.16,1.49-9.25,2.19c-0.55,0.12-1.15,0.02-1.72,0.02c-0.05-0.21-0.11-0.43-0.16-0.64c0.68-0.42,1.35-0.84,2.12-1.31
				c-0.99-0.17-1.85-0.32-2.71-0.47c1.33-1.78,2.99-1.46,4.3-0.76c2.71,1.44,5-0.06,7.43-0.67c0.27-0.07,0.54-0.47,0.64-0.78
				c0.61-1.74-0.66-5.16-2.03-6.59c-0.64-0.67-0.82-1.88-0.98-2.88c-0.2-1.22,0.16-2.59-0.27-3.69c-1.45-3.67-3.98-6.55-7.4-8.54
				c-3.98-2.31-8.15-2.76-12.31-1.1c0.05,0.93,0.09,1.65,0.14,2.38c-0.59-0.41-1.25-0.76-1.77-1.25c-2.51-2.37-4.71-5.17-7.52-7.07
				c-4.08-2.75-8.53-4.98-12.95-7.19c-1.54-0.77-3.44-0.82-5.18-1.2c0.06,1.79-0.4,3.81,0.28,5.31c2.58,5.68,5.49,11.22,8.36,16.77
				c1.27,2.45,3.35,4.07,5.87,5.16c0.55,0.24,0.98,0.75,1.46,1.14c-0.18,0.3-0.35,0.59-0.53,0.89c-2.06-1.05-4.11-2.11-6.25-3.2
				c-1.32,3.46-2.68,7.03-4.03,10.61c-2.83,7.52-6.85,14.2-13.26,19.25c-0.46,0.36-0.84,0.83-1.26,1.24
				c-1.54,1.52-1.6,3.23-0.17,4.7c1.53,1.57,3.25,2.98,5.04,4.25c2.16,1.52,4.68,2.59,6.7,4.26c3.94,3.27,8.34,4.44,13.36,4.18
				c4.04-0.2,8.11-0.17,12.16-0.07c9.17,0.25,17.13-2.84,23.82-8.95c2.11-1.93,3.56-4.64,5.07-7.14c0.36-0.59,0.05-2.28-0.46-2.58
				c-2.49-1.45-3.46-3.31-2.04-6.62c-2.01,1.88-3.41,3.37-5.01,4.63C252.08,256.28,250.7,257.88,248.63,257.86z M215.45,163.4
				c7.64-0.19,13.68-2.42,18.08-8.06c2.54-3.26,3.18-7.31,1.7-9.2c-1.64-2.1-6.17-3.07-9.69-1.52c-3.75,1.65-7.39,3.65-10.84,5.86
				c-2.84,1.82-4.73,4.63-5.78,7.87c-0.82,2.52-0.09,3.87,2.4,4.47C212.87,163.18,214.5,163.27,215.45,163.4z M253.95,152.21
				c1.08,1.37,2.27,2.67,3.21,4.13c5.53,8.63,7.75,18.24,8.17,28.34c0.58,13.91-0.51,27.7-3.16,41.37c-0.6,3.09-1.14,6.19-1.71,9.28
				c0.24,0.1,0.49,0.2,0.73,0.29c0.39-0.78,1-1.52,1.14-2.34c1.32-7.4,2.78-14.78,3.76-22.23c1.81-13.69,1.62-27.37-1.54-40.89
				C262.9,163.12,259.68,156.92,253.95,152.21z M202.21,152.89c3.56-0.48,7.45,1.46,10.21-2.52c0.68-0.98,1.88-1.64,2.93-2.31
				c1.59-1.01,3.25-1.88,4.88-2.82c-0.05-0.17-0.11-0.35-0.16-0.52c-1.97,0.39-4,0.6-5.9,1.21c-1.94,0.63-3.76,1.65-5.63,2.5
				c-0.14-0.2-0.28-0.4-0.42-0.6c0.49-0.49,0.9-1.11,1.47-1.46c3.62-2.22,7.58-3.05,11.81-2.99c1.89,0.03,3.79-0.4,5.69-0.62
				C218.3,138.78,203.36,144.94,202.21,152.89z M232.37,213.5c-0.07-0.3-0.08-0.53-0.18-0.71c-4.14-7.41-11.24-11.22-18.3-15.07
				c-0.06-0.03-0.14-0.06-0.21-0.08c-1.1-0.35-1.72,0-1.76,1.2c-0.06,1.74,0.12,3.13,2.05,4.15c5.38,2.85,11.07,5.33,15.13,10.14
				C230.12,214.36,231.02,214.53,232.37,213.5z M208.88,154.48c-2.17,0-4.13-0.4-5.77,0.13c-1.21,0.39-2.3,1.88-2.89,3.14
				c-0.32,0.68,0.21,2.21,0.87,2.81c1.8,1.67,4.06,2.5,6.83,2.42C206.2,159.97,207.52,157.38,208.88,154.48z M206.5,280.94
				c1.8-0.76,3.36-1.42,5.46-2.3c-0.23-0.61-0.34-1.84-1.01-2.41c-0.97-0.83-2.23-1.69-3.67-0.35
				C205.49,277.57,205.88,279.36,206.5,280.94z M262.49,237.28c-0.16-0.22-0.33-0.44-0.49-0.66c-1.38,0.86-2.77,1.73-4.17,2.6
				c0.78,1.27,1.35,2.19,1.93,3.14c1.71-0.83,2.16-1.79,0.54-3.06C261.11,238.55,261.8,237.92,262.49,237.28z M247.79,148.18
				c-3.19-1.47-6.21-1.75-9.31-1.38c-0.34,0.04-0.63,0.58-0.94,0.89c0.34,0.16,0.67,0.47,1.01,0.47
				C241.51,148.19,244.47,148.18,247.79,148.18z"/>
			<path class="st0" d="M127.77,243.58c2.41,0.8,4.84-0.37,7.31-0.45c-0.37,6.31-2.62,11.4-8.14,14.65c-2.22,1.31-4.51,2.5-6.75,3.8
				c-4.6,2.66-7.31,6.35-6.24,12.24c-1.98,0-3.87,0.01-5.76,0c-7.97-0.03-15.94,0.06-23.69-2.3c-6.18-1.88-11.69-4.85-16.28-9.45
				c-3.81-3.81-7.78-7.46-11.47-11.37c-3.89-4.12-6.94-8.81-7.94-14.55c-0.68-3.94,0.48-6.52,3.93-8.59
				c3.85-2.31,8.08-3.25,12.52-2.79c1.74,0.18,2.19-0.32,2.2-1.96c0.06-7.24,1.51-14.21,4.5-20.83c1.93-4.29,4.68-8,8-11.32
				c0.95-0.95,1.72-1.14,2.84-0.35c0.78,0.55,1.67,0.97,2.56,1.28c0.6,0.21,1.31,0.12,1.97,0.16c-0.42-0.49-0.74-1.12-1.26-1.43
				c-1.25-0.77-2.64-1.33-3.89-2.09c-9.96-6.1-17.97-13.9-21.48-25.41c-0.72-2.36-0.97-4.92-1.08-7.4c-0.1-2.2,0.95-2.89,3.14-2.4
				c1.36,0.31,2.72,0.73,3.98,1.31c11.88,5.38,24.14,10.03,34.45,18.37c0.41,0.33,0.97,0.46,1.46,0.68c0.15-0.16,0.3-0.32,0.45-0.48
				c-0.43-0.54-0.75-1.25-1.3-1.59c-6.01-3.72-12.02-7.43-18.11-11.02c-2.1-1.24-4.7-5.51-4.39-7.9c0.22-1.73,1.53-1.36,2.56-1.17
				c4.98,0.91,9.68,2.58,13.93,5.39c6.47,4.28,11.91,9.66,16.62,15.77c1.17,1.51,2.32,2.33,4.37,2.2c2.33-0.14,4.71,0.19,7.05,0.46
				c4.75,0.56,8.59,2.72,11.71,6.43c2.65,3.15,5.66,6,8.45,9.04c0.5,0.55,0.82,1.34,1.02,2.07c0.51,1.84,1.68,2.79,3.51,3.25
				c0.87,0.22,1.88,0.77,2.37,1.49c1.72,2.5,2.69,5.22,1.82,8.35c-0.4,1.42-1.03,2.01-2.62,1.94c-7.63-0.32-14.99,0.95-21.98,4.12
				c-0.47,0.21-0.98,0.39-1.37,0.7c-0.22,0.18-0.4,0.67-0.31,0.89c0.09,0.21,0.58,0.39,0.87,0.35c0.42-0.05,0.82-0.3,1.23-0.48
				c9.38-4.27,19.22-4.81,29.27-3.58c1.74,0.21,3.06,2.16,2.87,3.9c-0.06,0.55,0.18,1.51,0.55,1.67c1.58,0.7,1.31,1.81,0.78,2.9
				c-1,2.04-1.83,4.26-3.24,5.98c-4.79,5.86-10.32,10.94-16.99,14.66c-3.66,2.05-7.59,3.2-11.77,3.55c-0.76,0.06-1.5,0.25-2.25,0.37
				C127.74,242.96,127.75,243.27,127.77,243.58z M133.37,185.53c-2.29,0.3-3.4,1.38-3.91,3.23c-1.29,4.6,1.85,10.44,6.43,11.95
				c3.02,0.99,5.64-1.15,4.71-4.14c-0.93-2.99-2.26-5.91-3.8-8.64C136.18,186.84,134.55,186.32,133.37,185.53z M87.66,202.34
				c-0.08,0.13-0.15,0.27-0.23,0.4c0.51,0.21,1,0.57,1.52,0.62c11.12,1.14,22.25,1.21,33.38,0.4c0.51-0.04,0.99-0.42,1.48-0.65
				c-0.05-0.26-0.11-0.51-0.16-0.77C111.66,202.34,99.66,202.34,87.66,202.34z M123.77,208.52c-9.08,1.84-18.09,3.66-27.17,5.5
				C99.55,215.97,122.1,211.36,123.77,208.52z"/>
			<path class="st0" d="M129.82,123.68c-2.38-0.98-4.75-1.93-5.67-4.72c-0.13-0.39-0.92-0.8-1.38-0.76
				c-0.44,0.04-1.15,0.6-1.19,0.98c-0.05,0.53,0.27,1.3,0.69,1.64c1.18,0.95,2.5,1.73,4.1,2.81c-4.66-0.45-6.49-1.64-7.91-6
				c-1.97-6.04-2.44-12.31-1.06-18.55c1.3-5.87,5.56-9.35,11.15-12.39c2.65,3.86,5.33,7.76,8.02,11.67c0.2-0.13,0.39-0.26,0.59-0.4
				c-1.27-4.66-4.31-8.3-7.62-11.99c2.14-2.01,4.15-4.16,6.43-5.98c3.94-3.15,8.67-2.74,12.69,1.1c-2.42,2.35-4.76,4.76-7.25,7
				c-1.73,1.55-2.35,3.43-2.64,5.64c-0.61,4.73-1.19,9.47-2.11,14.15c-1.28,6.51-0.32,12.42,3.61,17.85
				c2.29,3.16,4.4,6.44,6.61,9.66c0.27,0.39,0.65,0.71,0.98,1.06c0.19-0.07,0.39-0.13,0.58-0.2c-0.14-0.65-0.11-1.4-0.44-1.92
				c-1.62-2.55-3.12-5.21-5.04-7.51c-5.23-6.26-6.47-13.11-4.23-20.91c0.94-3.28,1.24-6.8,1.42-10.23c0.17-3.24,0.98-5.8,3.86-7.69
				c1.49-0.97,2.59-2.58,3.73-4c1.08-1.34,2.19-2.39,4.09-1.98c1.79,0.39,2.65,1.71,2.82,3.3c0.53,4.86,2.9,8.85,5.4,12.91
				c3.8,6.18,4.84,13.11,3.89,20.23c-0.28,2.15-1.53,4.18-2.72,6.23c-0.62-5.01-1.61-9.69-4.97-13.44c-0.28,0.1-0.55,0.19-0.83,0.29
				c0.26,0.68,0.42,1.41,0.78,2.02c2.81,4.64,3.74,9.6,2.48,14.88c-0.93,3.91-2.43,7.64-6.79,8.8c-4.99,1.33-9.97,1.63-14.09-2.42
				c-1.1-1.08-2.06-2.31-3.07-3.48c-1.53-1.78-3.05-3.58-4.55-5.33c0.59,0.05,1.31,0.11,2.03,0.17c0.1-0.16,0.2-0.33,0.3-0.49
				c-0.44-0.47-0.88-0.94-1.33-1.41c0.79-0.36,3,2.12,2.35-1.17c1.31-0.02,1.15-0.69,0.81-1.61c-0.59-1.57-1.21-3.17-1.5-4.81
				c-0.13-0.72,0.58-1.57,0.79-2.39c0.23-0.91,0.67-2.01,0.34-2.72c-0.22-0.49-1.94-0.88-2.36-0.54c-0.6,0.47-0.75,1.66-0.83,2.57
				c-0.06,0.68,0.23,1.42,0.44,2.1c0.78,2.49,1.59,4.97,2.38,7.45c-3.75-0.7-4.8-1.91-5.14-5.6c-0.05-0.52-0.62-1.19-1.12-1.41
				c-0.4-0.18-1.37,0.08-1.53,0.41c-0.27,0.57-0.39,1.55-0.07,2C126.99,120.35,128.44,121.99,129.82,123.68z"/>
			<path class="st0" d="M120.83,148.86c-2.23-0.27-4.5-0.37-6.69-0.85c-6.92-1.53-12.92-4.89-18.13-9.67
				c-3.33-3.06-5.23-6.88-5.87-11.35c-0.25-1.78,0.27-2.68,2.26-2.91c1.54-0.18,3.1-0.85,4.47-1.63c1.39-0.79,2.57-0.98,3.87-0.02
				c2.4,1.77,5.08,1.88,7.98,1.77c4.61-0.17,9.27-0.19,13.84,0.37c4.06,0.5,7.37,2.86,9.81,6.25c0.21,0.3,0.45,0.58,0.67,0.88
				c3.43,4.7,7.4,8.48,14.39,7.76c-1.92,2.61-4.15,3.86-6.47,4.82c-2.36,0.98-4.87,1.98-7.37,2.13c-2.47,0.15-5.15-0.39-7.47-1.31
				c-2.24-0.88-4.15-2.63-6.44-3.67c1.39,3.05,4.27,4.31,6.86,6.27c-0.81-0.06-1.64,0.01-2.42-0.19c-8.7-2.18-15.7-6.92-21.13-14.03
				c-0.48-0.63-1.12-1.14-1.9-1.93C100.78,135.74,109.13,142.61,120.83,148.86z"/>
			<path class="st0" d="M160.97,236.32c-0.91,4.2-1.31,8.59-2.85,12.54c-1.91,4.9-4.5,9.59-7.25,14.09
				c-3.88,6.36-10.02,9.48-17.27,10.19c-5.35,0.53-10.74,0.53-16.11,0.84c-1.56,0.09-2.09-0.65-2.23-2.04
				c-0.26-2.62,0.64-4.84,2.48-6.59c1.21-1.15,2.67-2.07,4.11-2.95c1.82-1.12,3.77-2.03,5.59-3.14c4.84-2.97,8.08-7.05,8.71-12.88
				c0.28-2.58,1.3-4.22,4.03-5.28c6.15-2.39,10.94-6.87,15.58-11.44c0.57-0.56,0.92-1.32,1.71-1.7c-1.99,5.51-4.59,10.55-8.72,14.66
				c-1.62,1.61-3.32,3.16-4.8,4.88c-0.54,0.63-0.99,1.9-0.7,2.51c0.29,0.61,1.7,1.22,2.36,1.01c1.75-0.55,3.79-1.16,4.94-2.44
				c3.49-3.87,6.61-8.07,9.88-12.15C160.62,236.39,160.8,236.36,160.97,236.32z"/>
			<path class="st0" d="M100.25,112.76c0.59,4.04,3.31,6.87,6.04,9.69c-0.11,0.18-0.21,0.36-0.32,0.54
				c-1.36-0.56-2.83-0.95-4.07-1.71c-1.85-1.13-3.55-1.65-5.54-0.34c-0.43,0.28-1.43,0.13-1.9-0.2c-2.33-1.62-3.73-3.92-4.47-6.65
				c-0.19-0.72-0.5-1.41-0.83-2.34c-1.58,2.33-0.56,4.64,4.33,10.6c-1.96,0.71-3.62,0.51-4.79-1.31c-1.15-1.79-2.23-3.62-3.31-5.45
				c-0.35-0.59-0.62-1.23-0.93-1.85c-0.22,0.04-0.44,0.09-0.66,0.13c0,0.6-0.22,1.33,0.04,1.78c1.33,2.35,2.79,4.63,4.19,6.95
				c0.32,0.53,0.88,1.14,0.81,1.63c-0.7,4.55,0.98,8.39,3.35,12.05c0.16,0.24,0.3,0.49,0.21,1.12c-1.19-0.76-2.51-1.38-3.55-2.31
				c-5.45-4.88-7.51-11.13-6.95-18.29c0.26-3.34,2.1-5.8,5.11-7.24c1.72-0.82,3.57-1.36,5.34-2.08c2.58-1.04,5.25-1.94,7.71-3.24
				c4.52-2.38,9.19-2.4,13.99-1.41c0.48,0.1,1.02,0.92,1.13,1.49c0.2,1,0.09,2.05,0.13,3.09c0.22,5.03,0.53,10.03,3.77,14.59
				c-3.39,0.16-6.5,0.37-9.6,0.4c-0.62,0.01-1.41-0.57-1.84-1.1c-1.89-2.32-3.68-4.71-5.48-7.1c-0.43-0.58-0.75-1.25-1.12-1.88
				C100.77,112.48,100.51,112.62,100.25,112.76z"/>
			<path class="st0" d="M163.57,207.7c0.38-4.72,0.87-9.4,1.13-14.09c0.84-15.51-2.03-30.24-9.98-43.73
				c-1.78-3.01-4.25-5.62-6.54-8.6c0.25-0.38,0.52-1.17,1.07-1.52c0.41-0.26,1.57-0.19,1.74,0.11c5.69,9.77,12.7,18.97,14.77,30.44
				c2.09,11.58,2.58,23.27,0.96,34.99C166.46,207.14,165.9,208.24,163.57,207.7z"/>
			<path class="st0" d="M167.32,250.07c-1.22,9.65-10.14,18.38-20.21,19.61c7.33-7.22,11.65-15.84,14.14-25.6
				c0.99,0.15,1.84,0.28,2.72,0.41C162.88,247.58,163.31,251.29,167.32,250.07z"/>
			<path class="st0" d="M164.8,215.92c-0.81,6.3-2.17,12.48-5.37,17.87c-2.94,4.97-6.72,9.46-10.22,14.08
				c-1.07,1.41-2.63,1.98-4.78,1.21C155.53,240.58,159.73,228.01,164.8,215.92z"/>
			<path class="st0" d="M66.27,262.58c2.03,1.3,3.52,2.62,2.94,5.36c-0.27,1.26,0.36,2.71,0.65,4.46c-2.76-1.23-4.86-2.77-5.7-5.53
				C63.56,264.96,64.56,263.64,66.27,262.58z"/>
			<path d="M129.82,123.68c-1.38-1.69-2.83-3.33-4.09-5.11c-0.32-0.45-0.2-1.43,0.07-2c0.16-0.33,1.13-0.59,1.53-0.41
				c0.5,0.22,1.07,0.89,1.12,1.41c0.34,3.69,1.39,4.9,5.14,5.6l-0.06-0.05c0.66,3.29-1.55,0.8-2.35,1.17
				C130.73,124.08,130.27,123.88,129.82,123.68z"/>
			<path class="st0" d="M160.91,210.17c2.36-0.43,4.16-0.76,6.25-1.14C165.61,211.77,163.63,212.22,160.91,210.17z"/>
			<path class="st0" d="M148.35,194.46c-0.69-0.8-1.39-1.61-2.4-2.77c2.58-0.27,3.14,0.69,3.07,2.24
				C148.8,194.11,148.57,194.29,148.35,194.46z"/>
			<path class="st0" d="M168.96,244.69c-0.82,1.67-1.55,3.47-3.35,4.14c-0.17-0.17-0.33-0.35-0.5-0.52
				C166.39,247.1,167.68,245.9,168.96,244.69z"/>
			<path class="st0" d="M248.63,257.86c2.07,0.03,3.44-1.58,4.93-2.76c1.59-1.26,3-2.76,5.01-4.63c-1.43,3.32-0.45,5.18,2.04,6.62
				c0.52,0.3,0.82,1.99,0.46,2.58c-1.51,2.5-2.96,5.21-5.07,7.14c-6.69,6.1-14.65,9.19-23.82,8.95c-4.05-0.11-8.12-0.14-12.16,0.07
				c-5.02,0.25-9.42-0.92-13.36-4.18c-2.02-1.68-4.54-2.74-6.7-4.26c-1.79-1.26-3.51-2.68-5.04-4.25c-1.43-1.47-1.38-3.18,0.17-4.7
				c0.42-0.41,0.8-0.88,1.26-1.24c6.41-5.05,10.44-11.73,13.26-19.25c1.34-3.58,2.71-7.14,4.03-10.61c2.13,1.09,4.19,2.15,6.25,3.2
				c0.18-0.3,0.35-0.59,0.53-0.89c-0.49-0.39-0.92-0.9-1.46-1.14c-2.53-1.09-4.61-2.71-5.87-5.16c-2.87-5.55-5.78-11.09-8.36-16.77
				c-0.68-1.5-0.22-3.53-0.28-5.31c1.74,0.38,3.64,0.43,5.18,1.2c4.41,2.21,8.87,4.43,12.95,7.19c2.81,1.9,5.02,4.7,7.52,7.07
				c0.52,0.49,1.17,0.83,1.77,1.25c-0.04-0.72-0.08-1.44-0.14-2.38c4.16-1.66,8.33-1.21,12.31,1.1c3.42,1.98,5.95,4.86,7.4,8.54
				c0.43,1.09,0.07,2.47,0.27,3.69c0.16,1,0.34,2.21,0.98,2.88c1.36,1.43,2.64,4.85,2.03,6.59c-0.11,0.31-0.38,0.71-0.64,0.78
				c-2.43,0.62-4.71,2.11-7.43,0.67c-1.31-0.7-2.97-1.01-4.3,0.76c0.86,0.15,1.72,0.3,2.71,0.47c-0.76,0.47-1.44,0.89-2.12,1.31
				c0.05,0.21,0.11,0.43,0.16,0.64c0.58,0,1.17,0.11,1.72-0.02c3.09-0.7,6.17-1.42,9.25-2.19c2.56-0.64,3.53-0.1,4.11,2.47
				c0.63,2.75-0.16,5.22-2.02,7.16c-1.87,1.96-4.06,3.61-6.13,5.37c-0.53,0.45-1.16,0.8-1.74,1.2
				C248.39,257.31,248.51,257.58,248.63,257.86z M238.86,229.78c0.25,1.42,0.35,2.76,0.74,4.01c0.81,2.56,3.09,3.98,5.41,3.54
				c2.42-0.46,4.22-2.74,3.8-5.42c-0.37-2.38-1.11-4.73-1.94-7c-0.62-1.7-2.2-2.29-3.97-2.23c-1.72,0.05-2.72,1.13-3.15,2.64
				C239.33,226.79,239.14,228.33,238.86,229.78z"/>
			<path class="st0" d="M215.45,163.4c-0.95-0.13-2.58-0.22-4.14-0.59c-2.49-0.59-3.21-1.95-2.4-4.47c1.05-3.24,2.94-6.06,5.78-7.87
				c3.46-2.21,7.09-4.2,10.84-5.86c3.52-1.55,8.05-0.58,9.69,1.52c1.48,1.9,0.84,5.94-1.7,9.2
				C229.13,160.98,223.08,163.2,215.45,163.4z M223.01,156.75c0.03,0.2,0.05,0.39,0.08,0.59c0.57,0.07,1.17,0.28,1.7,0.18
				c3.27-0.64,6.08-2.19,8.42-4.55c0.34-0.35,0.4-0.98,0.59-1.47c-0.56,0.14-1.16,0.18-1.66,0.44c-2.58,1.33-5.13,2.72-7.69,4.08
				C223.98,156.28,223.49,156.51,223.01,156.75z"/>
			<path class="st0" d="M253.95,152.21c5.73,4.72,8.96,10.91,10.6,17.96c3.16,13.52,3.35,27.2,1.54,40.89
				c-0.98,7.45-2.44,14.83-3.76,22.23c-0.15,0.82-0.75,1.56-1.14,2.34c-0.24-0.1-0.49-0.2-0.73-0.29c0.57-3.09,1.11-6.19,1.71-9.28
				c2.65-13.67,3.74-27.46,3.16-41.37c-0.42-10.1-2.64-19.71-8.17-28.34C256.22,154.87,255.03,153.58,253.95,152.21z"/>
			<path class="st0" d="M202.21,152.89c1.15-7.94,16.09-14.11,24.87-10.14c-1.9,0.22-3.8,0.65-5.69,0.62
				c-4.23-0.06-8.2,0.77-11.81,2.99c-0.57,0.35-0.98,0.97-1.47,1.46c0.14,0.2,0.28,0.4,0.42,0.6c1.87-0.85,3.69-1.88,5.63-2.5
				c1.9-0.61,3.93-0.82,5.9-1.21c0.05,0.17,0.11,0.35,0.16,0.52c-1.63,0.93-3.3,1.81-4.88,2.82c-1.05,0.67-2.25,1.33-2.93,2.31
				C209.65,154.35,205.76,152.4,202.21,152.89z"/>
			<path class="st0" d="M232.37,213.5c-1.35,1.02-2.25,0.85-3.28-0.37c-4.05-4.82-9.75-7.29-15.13-10.14
				c-1.93-1.02-2.11-2.41-2.05-4.15c0.04-1.2,0.67-1.55,1.76-1.2c0.07,0.02,0.14,0.04,0.21,0.08c7.07,3.85,14.17,7.66,18.3,15.07
				C232.29,212.97,232.3,213.2,232.37,213.5z"/>
			<path class="st0" d="M208.88,154.48c-1.36,2.89-2.68,5.48-0.97,8.51c-2.77,0.08-5.02-0.75-6.83-2.42
				c-0.65-0.6-1.19-2.14-0.87-2.81c0.6-1.26,1.68-2.75,2.89-3.14C204.75,154.08,206.71,154.48,208.88,154.48z"/>
			<path class="st0" d="M206.5,280.94c-0.62-1.58-1.01-3.37,0.79-5.06c1.44-1.34,2.7-0.49,3.67,0.35c0.67,0.57,0.77,1.79,1.01,2.41
				C209.86,279.53,208.3,280.18,206.5,280.94z"/>
			<path class="st0" d="M262.49,237.28c-0.69,0.64-1.38,1.27-2.19,2.02c1.61,1.26,1.17,2.22-0.54,3.06
				c-0.58-0.95-1.15-1.86-1.93-3.14c1.4-0.87,2.79-1.74,4.17-2.6C262.17,236.84,262.33,237.06,262.49,237.28z"/>
			<path class="st0" d="M247.79,148.18c-3.32,0-6.28,0.02-9.24-0.02c-0.34,0-0.67-0.31-1.01-0.47c0.31-0.31,0.6-0.85,0.94-0.89
				C241.58,146.42,244.6,146.7,247.79,148.18z"/>
			<path d="M133.37,185.53c1.17,0.78,2.81,1.31,3.43,2.4c1.54,2.73,2.87,5.65,3.8,8.64c0.93,2.99-1.69,5.13-4.71,4.14
				c-4.59-1.5-7.73-7.35-6.43-11.95C129.98,186.92,131.08,185.83,133.37,185.53z M138.7,195.06c-0.87-1.86-1.71-3.74-2.63-5.58
				c-0.73-1.46-2.08-2.52-3.54-1.89c-0.88,0.38-1.63,1.99-1.72,3.11c-0.28,3.57,1.49,6.28,4.51,7.99c0.89,0.51,2.29,0.13,3.45,0.16
				c0-1.02-0.01-2.03-0.01-3.05C138.74,195.55,138.72,195.31,138.7,195.06z"/>
			<path d="M87.66,202.34c12,0,24,0,36,0c0.05,0.26,0.11,0.51,0.16,0.77c-0.49,0.22-0.97,0.61-1.48,0.65
				c-11.14,0.81-22.27,0.74-33.38-0.4c-0.52-0.05-1.02-0.41-1.52-0.62C87.51,202.61,87.58,202.47,87.66,202.34z"/>
			<path d="M123.77,208.52c-1.67,2.85-24.22,7.46-27.17,5.5C105.68,212.18,114.69,210.35,123.77,208.52z"/>
			<path d="M133.59,123.16c-0.8-2.48-1.61-4.96-2.38-7.45c-0.21-0.69-0.51-1.42-0.44-2.1c0.09-0.91,0.24-2.1,0.83-2.57
				c0.43-0.34,2.14,0.06,2.36,0.54c0.32,0.71-0.12,1.81-0.34,2.72c-0.21,0.82-0.92,1.67-0.79,2.39c0.29,1.64,0.92,3.23,1.5,4.81
				c0.34,0.92,0.51,1.59-0.81,1.61C133.53,123.11,133.59,123.16,133.59,123.16z"/>
			<path d="M238.86,229.78c0.28-1.45,0.47-2.99,0.9-4.47c0.44-1.51,1.43-2.59,3.15-2.64c1.76-0.05,3.34,0.53,3.97,2.23
				c0.83,2.27,1.57,4.62,1.94,7c0.42,2.68-1.38,4.96-3.8,5.42c-2.32,0.44-4.6-0.98-5.41-3.54
				C239.21,232.54,239.11,231.2,238.86,229.78z M244.16,224.68c-0.14-0.25-0.28-0.49-0.42-0.74c-0.8,0.49-2.02,0.8-2.31,1.5
				c-1.17,2.79-1.35,5.75-0.05,8.56c0.96,2.07,2.88,2.33,4.85,0.89C242.58,231.54,241.9,228.22,244.16,224.68z M247.65,233.11
				c-0.67-2.6-1.25-4.86-1.95-7.55C243.62,228.47,244.54,232.01,247.65,233.11z"/>
			<path d="M223.01,156.75c0.48-0.24,0.97-0.47,1.44-0.72c2.56-1.36,5.11-2.75,7.69-4.08c0.5-0.26,1.1-0.3,1.66-0.44
				c-0.19,0.5-0.24,1.13-0.59,1.47c-2.34,2.36-5.15,3.91-8.42,4.55c-0.54,0.1-1.13-0.11-1.7-0.18
				C223.06,157.15,223.04,156.95,223.01,156.75z"/>
			<path class="st0" d="M138.76,195.8c0,1.02,0.01,2.03,0.01,3.05c-1.16-0.03-2.55,0.34-3.45-0.16c-3.02-1.71-4.79-4.42-4.51-7.99
				c0.09-1.12,0.84-2.73,1.72-3.11c1.46-0.63,2.82,0.44,3.54,1.89c0.92,1.84,1.75,3.72,2.63,5.58c-0.72-0.88-1.34-1.87-2.19-2.6
				c-0.65-0.56-1.58-0.79-2.38-1.16c-0.1,0.85-0.49,1.8-0.23,2.52c0.34,0.99,1.11,1.87,1.82,2.68c0.57,0.65,1.32,1.14,2,1.71
				C138.06,197.41,138.41,196.6,138.76,195.8z"/>
			<path d="M138.76,195.8c-0.35,0.8-0.7,1.61-1.05,2.41c-0.67-0.56-1.43-1.05-2-1.71c-0.71-0.82-1.47-1.69-1.82-2.68
				c-0.25-0.73,0.13-1.67,0.23-2.52c0.8,0.37,1.74,0.6,2.38,1.16c0.85,0.73,1.47,1.72,2.19,2.6
				C138.72,195.31,138.74,195.55,138.76,195.8z"/>
			<path class="st0" d="M244.16,224.68c-2.26,3.54-1.58,6.86,2.07,10.2c-1.98,1.44-3.89,1.18-4.85-0.89
				c-1.3-2.81-1.13-5.76,0.05-8.56c0.3-0.7,1.52-1.01,2.31-1.5C243.88,224.18,244.02,224.43,244.16,224.68z"/>
			<path class="st0" d="M247.65,233.11c-3.11-1.1-4.03-4.64-1.95-7.55C246.4,228.24,246.98,230.51,247.65,233.11z"/>
		</g>
	</g>
</g>
</svg>
